
<svg width="114" height="20" viewBox="0 0 114 20" fill="none" xmlns="http://www.w3.org/2000/svg">
    <g clip-path="url(#clip0_52_16649)">
    <path d="M7.28144 20.0004H7.20669C3.6482 19.9855 0.0448549 17.1348 0 12.3587V12.1198C0.0448549 7.31387 3.66315 4.40343 7.23659 4.40343C10.212 4.40343 12.1407 6.08999 13.3668 7.97059V0.000442505H14.8021V19.6572H13.3668V16.3288C12.0809 18.2691 10.197 19.9855 7.28144 20.0004ZM7.38611 5.77656C4.1416 5.77656 1.54002 8.13477 1.54002 12.1348V12.1945C1.54002 16.1049 4.26121 18.6124 7.38611 18.6124C10.511 18.6124 13.4565 16.0154 13.4565 12.2243V12.1646C13.4565 8.34373 10.4811 5.77656 7.38611 5.77656Z" fill="white"/>
    <path d="M36.3926 15.8959V6.10484H34.2246V4.77648H36.3926V0.000362396H37.828V4.77648H43.061V6.08991H37.828V15.7317C37.828 17.866 39.0839 18.6422 40.8033 18.6422C41.536 18.6422 42.149 18.4929 43.0012 18.1198V19.463C42.2387 19.8213 41.5061 19.9854 40.5791 19.9854C38.2615 20.0004 36.3926 18.7466 36.3926 15.8959Z" fill="white"/>
    <path d="M45.752 10.075V10.0004C45.752 4.52275 49.8936 0.000362396 55.7097 0.000362396C59.2832 0.000362396 61.5259 1.22424 63.2902 3.22424L60.0009 6.80633C58.7898 5.52275 57.5936 4.68693 55.6798 4.68693C52.9885 4.68693 51.0747 7.08991 51.0747 9.92573V10.0004C51.0747 12.9407 52.9586 15.2989 55.8892 15.2989C57.6983 15.2989 58.9393 14.5078 60.2401 13.2541L63.3949 16.478C61.5558 18.5227 59.4327 19.9854 55.635 19.9854C49.9235 20.0004 45.752 15.5526 45.752 10.075Z" fill="white"/>
    <path d="M66.0869 0.358571H71.4994V3.06006C72.7553 1.46305 74.3851 0.000362396 77.1362 0.000362396C79.6331 0.000362396 81.517 1.10484 82.5188 3.01529C84.1933 1.06006 86.1969 0.000362396 88.7984 0.000362396C92.8204 0.000362396 95.2426 2.41827 95.2426 7.00036V19.4033H89.8301V8.77648C89.8301 6.22424 88.6938 4.89588 86.6604 4.89588C84.6269 4.89588 83.386 6.20932 83.386 8.77648V19.4033H77.9735V8.77648C77.9735 6.22424 76.8371 4.89588 74.8037 4.89588C72.7703 4.89588 71.5293 6.20932 71.5293 8.77648V19.4033H66.1168V0.358571" fill="white"/>
    <path d="M97.6338 16.8214L99.9812 13.2692C102.074 14.7617 104.272 15.5528 106.081 15.5528C107.666 15.5528 108.384 14.9856 108.384 14.1349C108.384 12.8961 106.515 12.4931 104.377 11.8662C101.671 11.0901 98.6056 9.83637 98.6056 6.13488C98.6056 2.17966 101.775 0.01548 105.678 0.01548C108.13 0.01548 110.806 0.836375 112.899 2.22443L110.806 5.95578C108.892 4.8513 106.979 4.17966 105.573 4.17966C104.242 4.17966 103.555 4.74682 103.555 5.49309C103.555 6.62742 105.394 7.13488 107.487 7.83637C110.193 8.7319 113.333 10.0006 113.333 13.4931C113.333 17.7916 110.118 19.717 105.932 19.717C103.226 19.702 100.191 18.8065 97.6338 16.8214Z" fill="white"/>
    <path d="M25.1338 4.32882C20.7081 4.32882 17.4785 7.97061 17.4785 12.1646V12.2243C17.4785 16.4184 20.6782 20.0005 25.0739 20.0005C29.4697 20.0005 32.7292 16.3587 32.7292 12.1646V12.1049C32.7441 7.91091 29.5295 4.32882 25.1338 4.32882Z" fill="#B626E8"/>
    </g>
    <defs>
    <clipPath id="clip0_52_16649">
    <rect width="113.333" height="20" fill="white"/>
    </clipPath>
    </defs>
</svg>
