<svg width="119" height="21" viewBox="0 0 119 21" fill="none" xmlns="http://www.w3.org/2000/svg">
    <g clip-path="url(#clip0_4171_3611)">
        <path d="M7.64552 21.0005H7.56702C3.83061 20.9848 0.0470976 17.9915 0 12.9766V12.7259C0.0470976 7.67959 3.84631 4.62362 7.59842 4.62362C10.7226 4.62362 12.7478 6.39452 14.0351 8.36915V0.000488281H15.5422V20.64H14.0351V17.1453C12.685 19.1826 10.7069 20.9848 7.64552 21.0005ZM7.75541 6.06541C4.34868 6.06541 1.61702 8.54153 1.61702 12.7415V12.8042C1.61702 16.9102 4.47428 19.543 7.75541 19.543C11.0365 19.543 14.1293 16.8162 14.1293 12.8356V12.7729C14.1293 8.76094 11.0051 6.06541 7.75541 6.06541Z" fill="#030618"/>
        <path d="M38.2119 16.6908V6.41019H35.9355V5.01541H38.2119V0.000488281H39.7191V5.01541H45.2138V6.39452H39.7191V16.5184C39.7191 18.7594 41.0378 19.5744 42.8432 19.5744C43.6125 19.5744 44.2561 19.4177 45.151 19.0259V20.4363C44.3503 20.8124 43.5811 20.9848 42.6077 20.9848C40.1743 21.0005 38.2119 19.6841 38.2119 16.6908Z" fill="#030618"/>
        <path d="M48.0391 10.5788V10.5005C48.0391 4.749 52.3877 0.000488281 58.4947 0.000488281C62.2469 0.000488281 64.6017 1.28556 66.4542 3.38556L63.0004 7.14676C61.7288 5.799 60.4728 4.92138 58.4633 4.92138C55.6375 4.92138 53.628 7.44452 53.628 10.4221V10.5005C53.628 13.5878 55.6061 16.0639 58.6831 16.0639C60.5827 16.0639 61.8858 15.2333 63.2516 13.9169L66.5641 17.302C64.6331 19.449 62.4038 20.9848 58.4162 20.9848C52.4191 21.0005 48.0391 16.3303 48.0391 10.5788Z" fill="#030618"/>
        <path d="M69.3906 0.376608H75.0737V3.21317C76.3925 1.53631 78.1037 0.000488281 80.9923 0.000488281C83.6141 0.000488281 85.5922 1.16019 86.6441 3.16616C88.4024 1.11317 90.5061 0.000488281 93.2377 0.000488281C97.4608 0.000488281 100.004 2.53929 100.004 7.35049V20.3736H94.321V9.21541C94.321 6.53556 93.1278 5.14079 90.9927 5.14079C88.8576 5.14079 87.5546 6.51989 87.5546 9.21541V20.3736H81.8715V9.21541C81.8715 6.53556 80.6784 5.14079 78.5433 5.14079C76.4082 5.14079 75.1051 6.51989 75.1051 9.21541V20.3736H69.422V0.376608" fill="#030618"/>
        <path d="M102.516 17.6624L104.98 13.9325C107.178 15.4997 109.486 16.3303 111.386 16.3303C113.05 16.3303 113.803 15.7348 113.803 14.8415C113.803 13.5407 111.841 13.1176 109.596 12.4594C106.754 11.6445 103.536 10.3281 103.536 6.44149C103.536 2.2885 106.864 0.0161133 110.962 0.0161133C113.536 0.0161133 116.347 0.878053 118.545 2.33552L116.347 6.25343C114.337 5.09373 112.328 4.3885 110.852 4.3885C109.455 4.3885 108.733 4.98402 108.733 5.76761C108.733 6.95865 110.664 7.49149 112.861 8.22805C115.703 9.16835 119 10.5004 119 14.1676C119 18.681 115.624 20.7027 111.229 20.7027C108.387 20.687 105.2 19.7467 102.516 17.6624Z" fill="#030618"/>
        <path d="M26.3905 4.54541C21.7436 4.54541 18.3525 8.36929 18.3525 12.773V12.8357C18.3525 17.2394 21.7122 21.0006 26.3277 21.0006C30.9433 21.0006 34.3657 17.1768 34.3657 12.773V12.7103C34.3814 8.3066 31.0061 4.54541 26.3905 4.54541Z" fill="#B626E8"/>
    </g>
<defs>
<clipPath id="clip0_4171_3611">
<rect width="119" height="21" fill="white"/>
</clipPath>
</defs>
</svg>
