<?xml version="1.0" encoding="utf-8"?>
<!-- Generator: Adobe Illustrator 22.1.0, SVG Export Plug-In . SVG Version: 6.00 Build 0)  -->
<svg version="1.1" id="Layer_1" xmlns="http://www.w3.org/2000/svg" xmlns:xlink="http://www.w3.org/1999/xlink" x="0px" y="0px"
	 viewBox="0 0 769 152" style="enable-background:new 0 0 769 152;" xml:space="preserve">
<style type="text/css">
	.st0{fill:#0A0724;}
	.st1{fill:#C336E5;}
</style>
<title>Slice 1</title>
<desc>Created with Sketch.</desc>
<path id="Fill-14" class="st0" d="M55.2,143.5h-0.5c-23.8-0.1-47.9-19.2-48.2-51.2v-1.6C6.8,58.5,31,39,54.9,39
	c19.9,0,32.8,11.3,41,23.9V9.5h9.6v131.7h-9.6v-22.3C87.3,131.9,74.7,143.4,55.2,143.5 M55.9,48.2c-21.7,0-39.1,15.8-39.1,42.6v0.4
	c0,26.2,18.2,43,39.1,43c20.7,0,40.6-17.4,40.6-42.8V91C96.5,65.4,76.6,48.2,55.9,48.2"/>
<path id="Fill-16" class="st0" d="M249.9,116V50.4h-14.5v-8.9h14.5v-32h9.6v32h35v8.8h-35v64.6c0,14.3,8.4,19.5,19.9,19.5
	c4.9,0,9-1,14.7-3.5v9c-5.1,2.4-10,3.5-16.2,3.5C262.4,143.5,249.9,135.1,249.9,116"/>
<path id="Fill-17" class="st0" d="M312.5,77v-0.5c0-36.7,27.7-67,66.6-67c23.9,0,38.9,8.2,50.7,21.6l-22,24
	c-8.1-8.6-16.1-14.2-28.9-14.2c-18,0-30.8,16.1-30.8,35.1v0.5c0,19.7,12.6,35.5,32.2,35.5c12.1,0,20.4-5.3,29.1-13.7l21.1,21.6
	c-12.3,13.7-26.5,23.5-51.9,23.5C340.4,143.5,312.5,113.7,312.5,77"/>
<path id="Fill-18" class="st0" d="M448.5,11.9h36.2V30c8.4-10.7,19.3-20.5,37.7-20.5c16.7,0,29.3,7.4,36,20.2
	c11.2-13.1,24.6-20.2,42-20.2c26.9,0,43.1,16.2,43.1,46.9v83.1h-36.2V68.3c0-17.1-7.6-26-21.2-26s-21.9,8.8-21.9,26v71.2H528V68.3
	c0-17.1-7.6-26-21.2-26c-13.6,0-21.9,8.8-21.9,26v71.2h-36.2V11.9"/>
<path id="Fill-19" class="st0" d="M659.5,122.2l15.7-23.8c14,10,28.7,15.3,40.8,15.3c10.6,0,15.4-3.8,15.4-9.5
	c0-8.3-12.5-11-26.8-15.2C686.5,83.8,666,75.4,666,50.6c0-26.5,21.2-41,47.3-41c16.4,0,34.3,5.5,48.3,14.8l-14,25
	c-12.8-7.4-25.6-11.9-35-11.9c-8.9,0-13.5,3.8-13.5,8.8c0,7.6,12.3,11,26.3,15.7c18.1,6,39.1,14.5,39.1,37.9
	c0,28.8-21.5,41.7-49.5,41.7C696.9,141.5,676.6,135.5,659.5,122.2"/>
<path id="Fill-20" class="st1" d="M174.6,38.5c-29.6,0-51.2,24.4-51.2,52.5v0.4c0,28.1,21.4,52.1,50.8,52.1
	c29.6,0,51.2-24.4,51.2-52.5v-0.4C225.5,62.5,204,38.5,174.6,38.5"/>
</svg>
